<?xml version="1.0" encoding="UTF-8"?> <svg xmlns="http://www.w3.org/2000/svg" width="788" height="800" viewBox="0 0 788 800" fill="none"> <path d="M440.646 478.931V800H704.772C739.101 800 766.942 772.174 766.942 737.826V478.931H440.646Z" fill="white"></path> <path d="M347.259 478.931H21.0773V737.826C21.0773 772.174 48.9266 800 83.2513 800H347.259V478.931ZM105.838 734.756C92.9486 734.756 82.4911 724.296 82.4911 711.41V581.867C82.4911 568.98 92.9506 558.522 105.838 558.522C118.726 558.522 129.186 568.983 129.186 581.867V711.41C129.186 724.296 118.728 734.756 105.838 734.756Z" fill="white"></path> <path d="M724.994 235.469H608.223C624.34 227.734 637.86 219.742 646.035 211.575C694.134 163.484 694.134 85.4739 646.035 37.3753C621.957 13.3289 590.433 1.30768 558.911 1.30768C527.383 1.30768 495.852 13.3289 471.806 37.3753C451.834 57.3529 432.621 106.663 416.935 157.475C409.608 155.464 402.068 154.056 394.135 154.056C386.23 154.056 378.687 155.466 371.394 157.461C355.647 106.19 336.252 56.2106 316.093 36.0656C292.045 12.0193 260.55 0 228.993 0C197.467 0 165.94 12.0212 141.892 36.0656C93.7954 84.182 93.7954 162.176 141.892 210.265C150.496 218.907 164.993 227.357 182.387 235.469H63.0039C28.6772 235.469 0.863373 263.293 0.863373 297.616V350.498C0.863373 384.825 28.6772 412.635 63.0039 412.635H347.259V237.935H440.646V412.635H724.996C759.319 412.635 787.137 384.821 787.137 350.496V297.614C787.135 263.293 759.317 235.469 724.994 235.469ZM515.834 81.3993C527.324 69.9019 542.642 63.5624 558.911 63.5624C575.202 63.5624 590.498 69.9019 602.023 81.3993C613.512 92.9025 619.836 108.197 619.836 124.476C619.836 140.755 613.512 156.047 602.08 167.478C589.218 179.611 538.848 198.516 476.58 216.124C474.819 210.086 472.442 204.373 469.437 198.959C486.401 140.363 504.219 93.6785 515.834 81.3993ZM185.914 80.0916C197.408 68.6021 212.728 62.2626 228.995 62.2626C245.288 62.2626 260.582 68.5863 272.04 80.0601C283.748 92.4496 301.774 139.739 318.859 198.943C316.03 204.018 313.785 209.373 312.019 215.009C249.455 197.379 198.774 178.378 185.912 166.251C162.169 142.492 162.169 103.85 185.914 80.0916Z" fill="white"></path> </svg> 