<svg width="27" height="41" viewBox="0 0 27 41" fill="none" xmlns="http://www.w3.org/2000/svg">
<g clip-path="url(#clip0_1_279)">
<g clip-path="url(#clip1_1_279)">
<mask id="mask0_1_279" style="mask-type:luminance" maskUnits="userSpaceOnUse" x="-1" y="0" width="28" height="41">
<path d="M26.98 0.401001H-0.0100098V40.5989H26.98V0.401001Z" fill="white"/>
</mask>
<g mask="url(#mask0_1_279)">
<path fill-rule="evenodd" clip-rule="evenodd" d="M13.4848 0.401001C8.66101 0.401001 4.23925 2.92772 1.82738 7.06236C-0.584497 11.197 -0.641923 16.3079 1.76995 20.4425C2.91846 22.395 4.52638 24.0603 6.47884 25.2088C7.0531 25.5534 7.45508 26.2425 7.39765 26.9316V27.2762C6.76597 27.5059 6.30657 28.0227 6.13429 28.6544C5.96201 29.286 6.13429 29.9752 6.59369 30.492C5.90459 31.2385 5.90459 32.387 6.59369 33.191C6.13429 33.7078 5.96201 34.3969 6.13429 35.0286C6.30657 35.6603 6.76597 36.1771 7.39765 36.4068V37.2108C7.39765 39.0484 8.89071 40.5415 10.7858 40.5415H16.1838C18.0214 40.5415 19.5719 39.0484 19.5719 37.2108V36.4068C20.2035 36.1771 20.6629 35.6603 20.8352 35.0286C21.0075 34.3969 20.8352 33.7078 20.3758 33.191C21.0649 32.4445 21.0649 31.2959 20.3758 30.492C20.8352 29.9752 21.0075 29.286 20.8352 28.6544C20.6629 28.0227 20.2035 27.5059 19.5719 27.2762V26.9316C19.5719 26.2425 19.9164 25.5534 20.5481 25.2088C24.5679 22.797 26.9798 18.49 26.9798 13.7811C26.9798 6.43068 20.9501 0.401001 13.4848 0.401001ZM18.8828 28.5395C19.2273 28.5395 19.5719 28.8266 19.5719 29.2286C19.5719 29.5732 19.2847 29.9177 18.8828 29.9177H8.08676C7.7422 29.9177 7.39765 29.6306 7.39765 29.2286C7.39765 28.8841 7.68478 28.5395 8.08676 28.5395H18.8828ZM10.7858 20.4999H11.4749V19.8108C11.4749 19.4663 11.1877 19.1217 10.7858 19.1217C10.4412 19.1217 10.0967 19.4089 10.0967 19.8108C10.0967 20.2128 10.4412 20.4999 10.7858 20.4999ZM14.1739 21.8207V27.1613H12.8531V21.8207H14.1739ZM18.8828 32.5593C19.2273 32.5593 19.5719 32.2722 19.5719 31.8702C19.5719 31.5256 19.2847 31.1811 18.8828 31.1811H8.08676C7.7422 31.1811 7.39765 31.4682 7.39765 31.8702C7.39765 32.2147 7.68478 32.5593 8.08676 32.5593H18.8828ZM10.7858 39.2781C9.69467 39.2781 8.77586 38.3593 8.77586 37.2682V36.5791H18.2511V37.2682C18.2511 38.3593 17.3323 39.2781 16.2412 39.2781H10.7858ZM8.08676 35.2583H18.8828C19.2273 35.2583 19.5719 34.9712 19.5719 34.5692C19.5719 34.1672 19.2847 33.8801 18.8828 33.8801H8.08676C7.7422 33.8801 7.39765 34.1672 7.39765 34.5692C7.39765 34.9712 7.7422 35.2583 8.08676 35.2583ZM19.8016 24.0603C18.7679 24.692 18.1937 25.7257 18.1937 26.9316V27.1613H15.4947V21.8207H16.1838C17.2748 21.8207 18.1937 20.9019 18.1937 19.8108C18.1937 18.7197 17.2748 17.8009 16.1838 17.8009C15.0927 17.8009 14.1739 18.7197 14.1739 19.8108V20.4999H12.8531V19.8108C12.8531 18.7197 11.9343 17.8009 10.8432 17.8009C9.7521 17.8009 8.83329 18.7197 8.83329 19.8108C8.83329 20.9019 9.7521 21.8207 10.8432 21.8207H11.4749V27.1613H8.77586V26.9316C8.77586 25.7831 8.20161 24.692 7.16795 24.0603C2.51648 21.3039 0.334311 15.7336 1.76995 10.5653C3.26301 5.3396 8.02933 1.72179 13.4848 1.72179C20.2035 1.72179 25.6015 7.11979 25.6015 13.7811C25.659 17.9732 23.4194 21.8782 19.8016 24.0603ZM15.4947 19.8108V20.4999H16.1838C16.5283 20.4999 16.8729 20.2128 16.8729 19.8108C16.8729 19.4663 16.5857 19.1217 16.1838 19.1217C15.8392 19.1791 15.4947 19.4663 15.4947 19.8108Z" fill="black"/>
<path d="M13.4849 3.09998H12.7958C12.4512 3.09998 12.1067 3.3871 12.1067 3.78908C12.1067 4.19106 12.4512 4.42076 12.7958 4.42076H13.4849C18.7106 4.42076 22.9027 8.61283 22.9601 13.7811V14.4702C22.9601 14.8148 23.2472 15.1593 23.6492 15.1593C23.9938 15.1593 24.3383 14.8722 24.3383 14.4702V13.7811C24.2809 7.86629 19.4572 3.09998 13.4849 3.09998Z" fill="#013765"/>
</g>
</g>
</g>
<defs>
<clipPath id="clip0_1_279">
<rect width="26.99" height="40.2" fill="white" transform="translate(-0.0100098 0.399902)"/>
</clipPath>
<clipPath id="clip1_1_279">
<rect width="26.99" height="40.1979" fill="white" transform="translate(-0.0100098 0.401001)"/>
</clipPath>
</defs>
</svg>
