<?xml version="1.0" encoding="UTF-8"?> <!-- Generator: Adobe Illustrator 24.0.2, SVG Export Plug-In . SVG Version: 6.00 Build 0) --> <svg xmlns="http://www.w3.org/2000/svg" xmlns:xlink="http://www.w3.org/1999/xlink" id="Слой_1" x="0px" y="0px" viewBox="0 0 800 800" style="enable-background:new 0 0 800 800;" xml:space="preserve"> <style type="text/css"> .st0{fill:#013765;} .st1{fill-rule:evenodd;clip-rule:evenodd;} </style> <path class="st0" d="M600,175h-25v25h25V175z"></path> <path class="st0" d="M600,225h-25v25h25V225z"></path> <path class="st0" d="M600,275h-25v25h25V275z"></path> <path class="st1" d="M75,125h650v550H75V125z M700,150H325v225h50v25h-50v75h-25v-75h-50v-25h50V150H100v225h50v25h-50v250h200v-75 h25v75h375V400H525v-25h175V150z"></path> <path class="st0" d="M600,350h-25v-25h25V350z"></path> </svg> 