<svg width="40" height="41" viewBox="0 0 40 41" fill="none" xmlns="http://www.w3.org/2000/svg">
<g clip-path="url(#clip0_1_309)">
<g clip-path="url(#clip1_1_309)">
<g clip-path="url(#clip2_1_309)">
<mask id="mask0_1_309" style="mask-type:luminance" maskUnits="userSpaceOnUse" x="-1" y="0" width="41" height="41">
<path d="M39.98 0.399902H-0.0100098V40.3899H39.98V0.399902Z" fill="white"/>
</mask>
<g mask="url(#mask0_1_309)">
<path fill-rule="evenodd" clip-rule="evenodd" d="M39.4087 31.9349H0.561276C0.218505 31.9349 -0.0100098 31.6492 -0.0100098 31.3636C-0.0100098 31.0779 0.275633 30.7923 0.561276 30.7923H10.0446L12.2726 20.7377C8.67353 17.4813 7.4167 12.3969 9.13056 7.88375C10.8444 3.37059 15.1862 0.399902 19.985 0.399902C24.7838 0.399902 29.1256 3.37059 30.8394 7.88375C32.5533 12.3969 31.2964 17.4813 27.6973 20.6805L29.9254 30.7352H39.4087C39.7515 30.7352 39.98 31.0208 39.98 31.3065C39.98 31.5921 39.6943 31.9349 39.4087 31.9349ZM12.6154 11.997C12.6154 13.2538 12.9582 14.5107 13.5866 15.5961C13.9294 15.0819 14.5578 14.7392 15.1862 14.7392H24.8409C25.4693 14.7392 26.0977 15.0819 26.4405 15.5961C27.0689 14.5107 27.4117 13.2538 27.4117 11.997C27.4117 7.94087 24.0982 4.68455 20.0421 4.68455C15.986 4.68455 12.6154 7.94087 12.6154 11.997ZM9.58759 11.997C9.58759 7.31246 12.7297 3.14207 17.2999 1.94237C21.8702 0.742674 26.669 2.68505 29.0113 6.74117C31.3536 10.7973 30.7252 15.9389 27.4117 19.3095L26.8975 17.0243C27.983 15.539 28.5543 13.768 28.5543 11.9399C28.4971 7.25533 24.7267 3.42772 19.985 3.42772C15.3004 3.42772 11.4728 7.25533 11.4157 11.9399C11.4157 13.768 11.987 15.539 13.0724 17.0243L12.5583 19.3095C10.673 17.3671 9.58759 14.7392 9.58759 11.997ZM15.1291 15.9389C14.7863 15.9389 14.4435 16.1674 14.3864 16.5102L11.2443 30.7352H28.6685L25.5265 16.5102C25.4693 16.1674 25.1266 15.9389 24.7838 15.9389H15.1291Z" fill="black"/>
<path d="M10.5588 39.1902H0.561276C0.218505 39.1902 -0.0100098 39.4758 -0.0100098 39.7615C-0.0100098 40.1042 0.275633 40.3328 0.561276 40.3328H10.5016C10.8444 40.3328 11.0729 40.0471 11.0729 39.7615C11.1301 39.4758 10.8444 39.1902 10.5588 39.1902Z" fill="black"/>
<path d="M39.4087 39.1902H16.7286C16.3859 39.1902 16.1573 39.4758 16.1573 39.7615C16.1573 40.1042 16.443 40.3328 16.7286 40.3328H39.4087C39.7514 40.3328 39.98 40.0471 39.98 39.7615C39.98 39.4758 39.6943 39.1902 39.4087 39.1902Z" fill="black"/>
<path d="M7.35962 34.9626C7.01684 34.9626 6.78833 35.2483 6.78833 35.5339C6.78833 35.8196 7.07397 36.1052 7.35962 36.1052H22.4416C22.7843 36.1052 23.0128 35.8196 23.0128 35.5339C23.0128 35.2483 22.7272 34.9626 22.4416 34.9626H7.35962Z" fill="#013765"/>
<path d="M26.8405 34.9626C26.4977 34.9626 26.2692 35.2483 26.2692 35.5339C26.2692 35.8196 26.5548 36.1052 26.8405 36.1052H32.6104C32.9532 36.1052 33.1817 35.8196 33.1817 35.5339C33.1817 35.2483 32.8961 34.9626 32.6104 34.9626H26.8405Z" fill="#013765"/>
<path d="M19.985 24.1083C19.6422 24.1083 19.4137 24.3939 19.4137 24.6796V28.2215C19.4137 28.5643 19.6993 28.7928 19.985 28.7928C20.3278 28.7928 20.5563 28.5072 20.5563 28.2215V24.6796C20.5563 24.3939 20.3278 24.1083 19.985 24.1083Z" fill="#013765"/>
<path d="M23.984 19.3665C23.9268 19.0238 23.6412 18.7952 23.3555 18.8524C23.0128 18.9095 22.7843 19.1951 22.8414 19.4808L23.4127 24.5081C23.4698 24.7937 23.6983 25.0223 23.984 25.0223H24.0411C24.2125 25.0223 24.3267 24.908 24.441 24.7937C24.5552 24.6795 24.5552 24.5081 24.5552 24.3367L23.984 19.3665Z" fill="#013765"/>
<path d="M16.6716 18.8524C16.5002 18.8524 16.3859 18.8524 16.2146 18.9667C16.1003 19.0809 15.986 19.1952 15.986 19.3666L15.4148 24.3939C15.3576 24.7367 15.5861 25.0223 15.9289 25.0223H15.986C16.2717 25.0223 16.5573 24.7938 16.5573 24.5081L17.1286 19.4808C17.1286 19.3094 17.1286 19.1952 17.0144 19.0238C16.9572 18.9095 16.843 18.8524 16.6716 18.8524Z" fill="#013765"/>
</g>
</g>
</g>
</g>
<defs>
<clipPath id="clip0_1_309">
<rect width="39.99" height="39.99" fill="white" transform="translate(-0.0100098 0.399902)"/>
</clipPath>
<clipPath id="clip1_1_309">
<rect width="39.99" height="39.99" fill="white" transform="translate(-0.0100098 0.399902)"/>
</clipPath>
<clipPath id="clip2_1_309">
<rect width="39.99" height="39.99" fill="white" transform="translate(-0.0100098 0.399902)"/>
</clipPath>
</defs>
</svg>
