<svg width="40" height="41" viewBox="0 0 40 41" fill="none" xmlns="http://www.w3.org/2000/svg">
<g clip-path="url(#clip0_1_296)">
<g clip-path="url(#clip1_1_296)">
<g clip-path="url(#clip2_1_296)">
<mask id="mask0_1_296" style="mask-type:luminance" maskUnits="userSpaceOnUse" x="0" y="0" width="40" height="41">
<path d="M39.99 0.399902H0V40.3899H39.99V0.399902Z" fill="white"/>
</mask>
<g mask="url(#mask0_1_296)">
<path fill-rule="evenodd" clip-rule="evenodd" d="M38.7903 23.0799V24.7938C39.4187 24.7938 39.99 25.308 39.99 25.9935V27.1361C39.99 27.7645 39.4758 28.3358 38.7903 28.3358H30.8494C30.221 28.3358 29.6497 27.8216 29.6497 27.1361V25.9935C29.6497 25.3651 30.1639 24.7938 30.8494 24.7938V19.5951C30.8494 19.4808 30.7352 19.3666 30.6209 19.3666H27.8787C27.4788 20.5092 26.3934 21.3661 25.0794 21.3661H20.9662C20.6234 21.3661 20.3949 21.0804 20.3949 20.7948C20.3949 20.452 20.6805 20.2235 20.9662 20.2235H25.0794C25.9364 20.2235 26.679 19.5951 26.7933 18.7382C26.8504 18.0526 26.9076 12.8539 26.7933 12.0541C26.679 11.1972 25.9364 10.5688 25.0794 10.5688H17.2528C16.3959 10.5688 15.6532 11.1972 15.539 12.0541C15.539 12.1684 15.539 13.8251 15.539 15.4247C15.539 17.0243 15.539 18.6239 15.539 18.681C15.6532 19.538 16.3959 20.1664 17.2528 20.1664H18.224C18.5668 20.1664 18.7953 20.452 18.7953 20.7377C18.7953 21.0804 18.5097 21.309 18.224 21.309H17.2528C15.9389 21.309 14.8534 20.452 14.4535 19.3095H10.0546C9.82611 19.995 9.14057 20.5092 8.3979 20.5092C7.65523 20.5092 6.96969 19.995 6.74117 19.3095H0.571286C0.228514 19.3095 0 19.0238 0 18.7382C0 18.3954 0.285643 18.1669 0.571286 18.1669H6.62691V12.5683H0.571286C0.228514 12.5683 0 12.2826 0 11.997C0 11.6542 0.285643 11.4257 0.571286 11.4257H6.74117C6.96969 10.7402 7.65523 10.226 8.3979 10.226C9.14057 10.226 9.82611 10.7402 10.0546 11.4257H14.4535C14.8534 10.2831 15.9389 9.42622 17.2528 9.42622H19.1952V7.1982C18.3954 7.14107 17.7099 6.56979 17.5385 5.82712H11.6542C10.5117 5.82712 9.5976 4.91306 9.5976 3.77049C9.5976 2.68505 10.5117 1.71386 11.6542 1.71386H17.5385C17.7099 0.971188 18.4525 0.399902 19.2523 0.399902H23.0799C23.9369 0.399902 24.6224 0.971188 24.7938 1.77099H30.678C31.8206 1.77099 32.7347 2.68505 32.7347 3.82762C32.7347 4.91306 31.8206 5.88425 30.678 5.88425H24.7938C24.6224 6.62692 23.9369 7.1982 23.1371 7.25533V9.48335H25.0794C26.3934 9.48335 27.4788 10.3403 27.8787 11.4828H32.9632C36.1624 11.4828 38.7903 14.1108 38.7903 17.31V20.452C38.7903 20.7948 38.5047 21.0233 38.219 21.0233C37.9334 21.0233 37.6477 20.7377 37.6477 20.452V17.31C37.6477 14.7392 35.534 12.6254 32.9632 12.6254H27.993V18.224H30.5638C31.3636 18.224 31.992 18.8524 31.992 19.6522V24.8509H37.5906V23.1371C37.5906 22.7943 37.8762 22.5658 38.1619 22.5658C38.4475 22.5658 38.7903 22.7943 38.7903 23.0799ZM30.678 2.91356H24.8509V4.62742H30.678C31.1351 4.62742 31.535 4.22752 31.535 3.77049C31.535 3.31346 31.1351 2.91356 30.678 2.91356ZM17.4813 4.62742H11.6542C11.1972 4.62742 10.7973 4.22752 10.7973 3.77049C10.7973 3.31346 11.1972 2.91356 11.6542 2.91356H17.4813V4.62742ZM8.3979 19.3666C8.74067 19.3666 8.96919 19.0809 8.96919 18.7953V11.997C8.96919 11.6542 8.68354 11.4257 8.3979 11.4257C8.05513 11.4257 7.82661 11.7114 7.82661 11.997V18.7953C7.82661 19.0809 8.05513 19.3666 8.3979 19.3666ZM14.2821 18.224H10.1118V12.6254H14.2821V18.224ZM20.3378 9.36909H21.9945V7.14107H20.3378V9.36909ZM19.2523 5.9985C18.9096 5.9985 18.681 5.71286 18.681 5.42722V2.17089C18.681 1.82812 18.9667 1.5996 19.2523 1.5996H23.0799C23.4227 1.5996 23.6512 1.88525 23.6512 2.17089V5.42722C23.6512 5.76999 23.3656 5.9985 23.0799 5.9985H19.2523ZM38.7903 27.1932V26.0506H30.8494V27.1932H38.7903Z" fill="black"/>
<path fill-rule="evenodd" clip-rule="evenodd" d="M34.2772 30.3925C34.6199 30.1068 35.1341 30.1068 35.4197 30.3925C36.5052 31.4779 39.076 34.2201 39.076 36.1624C39.076 38.5047 37.1907 40.39 34.8484 40.39C32.5062 40.39 30.6209 38.5047 30.6209 36.1624C30.5638 34.2201 33.1346 31.4779 34.2772 30.3925ZM31.7635 36.1624C31.7635 37.8763 33.1346 39.2474 34.8484 39.2474C36.5623 39.2474 37.9334 37.8763 37.9334 36.1624C37.9334 35.4198 37.1336 33.763 34.8484 31.4779C32.5633 33.763 31.7635 35.4198 31.7635 36.1624Z" fill="#013765"/>
</g>
</g>
</g>
</g>
<defs>
<clipPath id="clip0_1_296">
<rect y="0.399902" width="39.99" height="39.99" rx="4" fill="white"/>
</clipPath>
<clipPath id="clip1_1_296">
<rect width="39.99" height="39.99" fill="white" transform="translate(0 0.399902)"/>
</clipPath>
<clipPath id="clip2_1_296">
<rect width="39.99" height="39.99" fill="white" transform="translate(0 0.399902)"/>
</clipPath>
</defs>
</svg>
