<svg width="151" height="48" viewBox="0 0 151 48" fill="none" xmlns="http://www.w3.org/2000/svg">
<g clip-path="url(#clip0_1_107)">
<g clip-path="url(#clip1_1_107)">
<g clip-path="url(#clip2_1_107)">
<path d="M10.7056 13.502V16.8034H4.06255V43.2245H0.77124V13.502H10.7056Z" fill="white"/>
<path d="M22.2301 13.2504C23.0555 13.2504 23.7601 13.3712 24.3539 13.6128C24.9377 13.8543 25.4107 14.1865 25.763 14.5991C26.1153 15.0118 26.3871 15.4949 26.5582 16.0586C26.7293 16.6122 26.8098 17.206 26.8098 17.8301V38.9065C26.8098 39.5305 26.7293 40.1244 26.5582 40.688C26.3871 41.2416 26.1254 41.7348 25.763 42.1475C25.4107 42.5602 24.9377 42.8923 24.3539 43.1339C23.7701 43.3754 23.0656 43.4962 22.2301 43.4962H19.7038C18.8784 43.4962 18.1638 43.3754 17.58 43.1339C16.9963 42.8923 16.5232 42.5602 16.1709 42.1475C15.8186 41.7348 15.5469 41.2517 15.3758 40.688C15.2047 40.1345 15.1241 39.5406 15.1241 38.9065V17.8301C15.1241 17.206 15.2047 16.6122 15.3758 16.0586C15.5469 15.505 15.8086 15.0118 16.1709 14.5991C16.5232 14.1865 16.9963 13.8543 17.58 13.6128C18.1638 13.3712 18.8684 13.2504 19.7038 13.2504H22.2301ZM22.2301 40.1848C22.6831 40.1848 23.0152 40.0539 23.2165 39.8023C23.4178 39.5406 23.5185 39.2487 23.5185 38.9065V17.8301C23.5185 17.4878 23.4178 17.1859 23.2165 16.9343C23.0152 16.6826 22.6931 16.5518 22.2301 16.5518H19.7038C19.2207 16.5518 18.8784 16.6826 18.6973 16.9343C18.506 17.196 18.4155 17.4878 18.4155 17.8301V38.9065C18.4155 39.2487 18.506 39.5507 18.6973 39.8023C18.8784 40.0539 19.2207 40.1848 19.7038 40.1848H22.2301Z" fill="white"/>
<path d="M44.0213 13.502V43.2245H40.7199V16.8034H36.9555L35.9691 39.1179C35.9087 40.4867 35.6169 41.5134 35.0935 42.1978C34.5701 42.8822 33.6139 43.2245 32.245 43.2245H30.4434V39.9231H31.8122C32.1544 39.9231 32.3759 39.8728 32.4765 39.7721C32.5772 39.6715 32.6376 39.45 32.6678 39.1078L33.785 13.492H44.0213V13.502Z" fill="white"/>
<path d="M61.7158 13.502V43.2245H58.4144V16.8034H54.65L53.6637 39.1179C53.6033 40.4867 53.3114 41.5134 52.788 42.1978C52.2646 42.8822 51.3084 43.2245 49.9395 43.2245H48.1379V39.9231H49.5067C49.849 39.9231 50.0704 39.8728 50.171 39.7721C50.2717 39.6715 50.3321 39.45 50.3623 39.1078L51.4795 13.492H61.7158V13.502Z" fill="white"/>
<path d="M77.5584 43.2245L76.9142 37.5276H71.0462L70.3618 43.2245H67.0604L70.4423 13.502H77.4678L80.89 43.2245H77.5584ZM71.3884 34.5382H76.572L74.5187 16.8135H73.4015L71.3884 34.5382Z" fill="white"/>
<path d="M94.3068 13.502H97.6081V43.2245H94.3068V26.2647H89.2138V43.2245H85.9124V13.502H89.2138V22.9734H94.3068V13.502Z" fill="white"/>
<path d="M117.9 39.9331V47.17H115.625L114.981 43.2345H104.744L104.442 47.17H101.785V39.9331H103.708C104.312 39.5305 104.624 38.8763 104.654 37.9604L105.64 13.502H115.615V39.9231H117.9V39.9331ZM112.334 39.9331V16.8034H108.821L107.925 38.0912C107.865 38.836 107.643 39.45 107.241 39.9331H112.334Z" fill="white"/>
<path d="M130.28 43.2245V24.3422L125.398 29.2641V43.2245H122.097V13.502H125.398V25.2783L130.28 20.1853V13.502H133.581V43.2245H130.28Z" fill="white"/>
<path d="M150.491 13.502V43.2245H147.189V29.0125H145.307L142.056 43.2345H138.674L141.975 28.8011C141.15 28.5394 140.466 28.0764 139.922 27.392C139.379 26.7075 139.107 25.7211 139.107 24.4328V18.0918C139.107 17.4677 139.187 16.8739 139.358 16.3102C139.53 15.7566 139.791 15.2634 140.154 14.8508C140.506 14.4381 140.979 14.1059 141.563 13.8644C142.146 13.6228 142.851 13.502 143.686 13.502H150.491ZM147.199 16.8034H143.686C143.203 16.8034 142.861 16.9343 142.68 17.1859C142.489 17.4375 142.398 17.7395 142.398 18.0817V24.4227C142.398 24.8757 142.529 25.2078 142.781 25.4091C143.032 25.6104 143.334 25.7111 143.676 25.7111H147.189V16.8034H147.199Z" fill="white"/>
<path d="M0.509521 7.11066V6.92949V4.74535V4.66483V3.18525H1.36506V4.66483V4.74535V8.4292H0.509521V7.11066ZM0.791346 5.25867H2.02936V5.98336H0.791346V5.25867ZM1.59656 5.69147L3.71024 3.18525H4.62617V3.30603L2.62321 5.59082L5.1093 8.30842V8.4292H4.11285L1.59656 5.69147Z" fill="white"/>
<path d="M9.64869 8.31848C9.3266 8.17757 9.04478 7.98633 8.80322 7.74477C8.55159 7.49314 8.37041 7.20125 8.2295 6.8691C8.09865 6.53695 8.0282 6.1746 8.0282 5.78206C8.0282 5.39959 8.09865 5.04731 8.2295 4.71516C8.36035 4.38301 8.55159 4.10118 8.79315 3.85962C9.03471 3.61805 9.31654 3.42682 9.64869 3.29597C9.98084 3.16512 10.3331 3.09467 10.7156 3.09467C11.0981 3.09467 11.4504 3.16512 11.7825 3.29597C12.1046 3.42682 12.3864 3.61805 12.628 3.85962C12.8695 4.10118 13.0507 4.38301 13.1916 4.71516C13.3225 5.04731 13.3929 5.40965 13.3929 5.79213C13.3929 6.18467 13.3225 6.54702 13.1916 6.87917C13.0608 7.21132 12.8695 7.50321 12.628 7.75484C12.3864 7.98633 12.1046 8.17757 11.7825 8.31848C11.4604 8.4594 11.0981 8.52985 10.7156 8.52985C10.3331 8.52985 9.98084 8.4594 9.64869 8.31848ZM11.4504 7.61392C11.6718 7.52334 11.863 7.38242 12.0241 7.21132C12.1851 7.04021 12.3059 6.82884 12.3965 6.58728C12.4871 6.34571 12.5273 6.08402 12.5273 5.79213C12.5273 5.50024 12.4871 5.24861 12.3965 5.00705C12.3059 4.77555 12.1851 4.57424 12.0241 4.40314C11.863 4.23203 11.6718 4.10118 11.4504 4.0106C11.2289 3.92001 10.9773 3.86968 10.7055 3.86968C10.4338 3.86968 10.1922 3.92001 9.96071 4.0106C9.74934 4.09112 9.5581 4.22196 9.39706 4.39307C9.23602 4.56418 9.10517 4.76548 9.02465 4.99698C8.93406 5.23854 8.88374 5.50024 8.88374 5.78206C8.88374 6.06389 8.93406 6.33565 9.02465 6.57721C9.11524 6.81878 9.24608 7.03014 9.39706 7.20125C9.5581 7.37236 9.74934 7.51327 9.97077 7.60386C10.1922 7.69444 10.4438 7.74477 10.7156 7.74477C10.9874 7.75484 11.2289 7.70451 11.4504 7.61392Z" fill="white"/>
<path d="M18.3349 3.96027H16.6138V3.18525H20.9116V3.96027H19.1905V8.43926H18.3349V3.96027Z" fill="white"/>
<path d="M25.8234 3.96027H24.1022V3.18525H28.4001V3.96027H26.6789V8.43926H25.8234V3.96027Z" fill="white"/>
<path d="M33.1508 8.33861C32.8187 8.20776 32.5368 8.02659 32.2953 7.79509C32.0537 7.56359 31.8625 7.2717 31.7216 6.93955C31.5806 6.6074 31.5102 6.22493 31.5102 5.80219C31.5102 5.36939 31.5807 4.97685 31.7316 4.63463C31.8826 4.29242 32.0738 4.01059 32.3255 3.77909C32.5771 3.54759 32.8589 3.37649 33.181 3.2557C33.5031 3.13492 33.8352 3.07453 34.1875 3.07453C34.5901 3.07453 34.9525 3.14499 35.2645 3.29597C35.5765 3.44694 35.8483 3.63818 36.0596 3.88981C36.271 4.14144 36.4421 4.4132 36.5528 4.71515C36.6636 5.01711 36.7239 5.33919 36.7239 5.66128V5.96323H32.0839V5.24861H36.3616L35.8684 5.86258V5.60089C35.8684 5.35932 35.8281 5.12782 35.7376 4.91646C35.647 4.70509 35.5262 4.52391 35.3652 4.36287C35.2041 4.21189 35.0229 4.08105 34.8116 3.99046C34.6002 3.89987 34.3687 3.84955 34.1171 3.84955C33.8654 3.84955 33.644 3.89987 33.4226 3.99046C33.2112 4.08105 33.02 4.21189 32.869 4.383C32.718 4.55411 32.5972 4.75541 32.5066 4.98691C32.4161 5.21841 32.3758 5.49017 32.3758 5.78206C32.3758 6.08401 32.4261 6.35577 32.5167 6.59734C32.6073 6.8389 32.7482 7.05027 32.9193 7.22138C33.0904 7.39249 33.2917 7.52333 33.5232 7.61392C33.7547 7.70451 34.0064 7.75483 34.2781 7.75483C34.6103 7.75483 34.9223 7.68438 35.2142 7.55353C35.5061 7.42268 35.7376 7.24151 35.9087 7.01001L36.4723 7.52333C36.2207 7.86555 35.8885 8.11718 35.4859 8.27822C35.0833 8.43926 34.6606 8.51978 34.2278 8.51978C33.8352 8.52985 33.483 8.46946 33.1508 8.33861Z" fill="white"/>
<path d="M39.7938 7.65418H45.7222V9.74773H44.9472V8.43926H40.5688V9.74773H39.7938V7.65418ZM40.6594 7.17105C40.75 6.93955 40.8205 6.67786 40.8809 6.38597C40.9413 6.10415 40.9815 5.79213 41.0218 5.44991C41.052 5.1077 41.0721 4.73528 41.0721 4.33268V3.18525H44.7559V7.84542H43.9004V3.64825L44.3936 3.96027H41.4747L41.8874 3.64825V4.67489C41.8874 4.99698 41.8773 5.29893 41.8471 5.59082C41.8169 5.88271 41.7767 6.15447 41.7364 6.41617C41.6861 6.67786 41.6257 6.92949 41.5552 7.17105C41.4747 7.40255 41.3942 7.64412 41.2935 7.87561L40.3474 7.83535C40.4682 7.63405 40.5789 7.41262 40.6594 7.17105Z" fill="white"/>
<path d="M48.7418 8.31848L50.936 5.22848L50.9259 6.11421L49.0437 3.30603V3.18525H49.9194L51.5499 5.7116L49.6678 8.4292H48.7518V8.31848H48.7418ZM50.9561 5.24861H53.7441V5.9733H50.9561V5.24861ZM51.9324 7.11066V6.92949V4.74535V4.66483V3.18525H52.788V4.66483V4.74535V8.4292H51.9324V7.11066ZM53.1704 5.7116L54.801 3.18525H55.6364V3.30603L53.7945 6.06389L53.7844 5.17815L56.0189 8.31848V8.43926H55.0727L53.1704 5.7116Z" fill="white"/>
<path d="M59.582 7.11066V6.92949V4.74535V4.66483V3.18525H60.4375V4.66483V4.74535V8.4292H59.582V7.11066ZM60.0953 5.24861H63.608V6.02362H60.0953V5.24861ZM63.2457 7.11066V6.92949V4.74535V4.66483V3.18525H64.1012V4.66483V4.74535V8.4292H63.2457V7.11066Z" fill="white"/>
<path d="M72.1332 5.36939C72.4956 5.64115 72.6667 6.07395 72.6667 6.67786C72.6667 7.2717 72.4855 7.70451 72.1332 7.9964C71.7709 8.28829 71.2072 8.4292 70.4221 8.4292H68.4997V3.18525H69.3552V4.95672H70.5329C71.2374 4.95672 71.7709 5.09763 72.1332 5.36939ZM70.8952 7.62399C71.0864 7.60385 71.2475 7.55353 71.3783 7.48307C71.5092 7.41262 71.6199 7.32203 71.6903 7.19118C71.7709 7.06034 71.8011 6.88923 71.8011 6.67786C71.8011 6.31551 71.6803 6.06389 71.4287 5.93304C71.177 5.80219 70.8348 5.73173 70.3819 5.73173H69.3552V7.65418H70.2812C70.5027 7.65418 70.704 7.64412 70.8952 7.62399ZM73.4014 3.18525H74.257V8.43926H73.4014V3.18525Z" fill="white"/>
<path d="M78.6555 3.18525H79.511V7.38242L79.0178 7.44281L82.6916 3.18525H83.1848V8.43926H82.3292V4.17164L82.8426 4.11124L79.1185 8.4292H78.6655V3.18525H78.6555ZM80.2458 2.24919C80.0344 2.17873 79.8633 2.08815 79.7123 1.9573C79.5613 1.82645 79.4506 1.67548 79.3701 1.48424C79.2896 1.293 79.2392 1.08163 79.2392 0.830002H80.0143C80.0143 1.08163 80.0948 1.293 80.2558 1.44398C80.4169 1.59495 80.6484 1.67548 80.9503 1.67548C81.2422 1.67548 81.4636 1.60502 81.6347 1.45404C81.8059 1.30306 81.8864 1.10176 81.8864 0.830002H82.6513C82.6513 1.08163 82.6111 1.293 82.5205 1.48424C82.4299 1.67548 82.3091 1.82645 82.1581 1.9573C82.0072 2.08815 81.826 2.17873 81.6146 2.24919C81.4032 2.31965 81.1717 2.34984 80.9302 2.34984C80.6786 2.34984 80.4471 2.30958 80.2458 2.24919Z" fill="white"/>
<path d="M93.2801 3.18525H97.6282V8.43926H96.7727V3.96027H94.1457V8.43926H93.2902V3.18525H93.2801Z" fill="white"/>
<path d="M103.245 8.31848C102.923 8.17757 102.631 7.98633 102.389 7.7347C102.148 7.48307 101.956 7.20125 101.825 6.85903C101.695 6.52688 101.624 6.16453 101.624 5.77199C101.624 5.38952 101.695 5.03724 101.825 4.70509C101.956 4.37294 102.148 4.09111 102.389 3.84955C102.631 3.60798 102.912 3.41675 103.245 3.2859C103.577 3.15505 103.929 3.08459 104.312 3.08459C104.694 3.08459 105.046 3.15505 105.378 3.2859C105.701 3.41675 105.982 3.60798 106.224 3.84955C106.465 4.09111 106.647 4.37294 106.788 4.70509C106.928 5.03724 106.989 5.39958 106.989 5.78206C106.989 6.1746 106.918 6.53694 106.788 6.8691C106.657 7.20125 106.465 7.49314 106.224 7.74476C105.982 7.99639 105.701 8.18763 105.378 8.32854C105.056 8.46946 104.694 8.53991 104.312 8.53991C103.929 8.52985 103.577 8.45939 103.245 8.31848ZM105.046 7.61392C105.268 7.52333 105.459 7.38242 105.62 7.21131C105.781 7.0402 105.902 6.82883 105.992 6.58727C106.083 6.34571 106.123 6.08401 106.123 5.79212C106.123 5.50023 106.083 5.2486 105.992 5.00704C105.902 4.77554 105.781 4.57424 105.62 4.40313C105.459 4.23202 105.268 4.10118 105.046 4.01059C104.825 3.92 104.573 3.86968 104.301 3.86968C104.03 3.86968 103.788 3.92 103.567 4.01059C103.345 4.10118 103.154 4.23202 102.983 4.40313C102.822 4.57424 102.691 4.77554 102.611 5.00704C102.52 5.23854 102.48 5.50023 102.48 5.79212C102.48 6.08401 102.53 6.34571 102.621 6.58727C102.711 6.82883 102.842 7.0402 102.993 7.21131C103.154 7.38242 103.345 7.52333 103.567 7.61392C103.788 7.7045 104.04 7.75483 104.301 7.75483C104.583 7.75483 104.825 7.7045 105.046 7.61392Z" fill="white"/>
<path d="M112.182 8.31848C111.84 8.17757 111.558 7.98633 111.327 7.7347C111.095 7.48307 110.914 7.20125 110.783 6.85903C110.653 6.52688 110.592 6.16454 110.592 5.77199C110.592 5.34926 110.663 4.97685 110.804 4.63463C110.944 4.30248 111.136 4.02066 111.387 3.78916C111.629 3.55766 111.921 3.37649 112.243 3.2557C112.575 3.13492 112.927 3.07453 113.31 3.07453C113.511 3.07453 113.702 3.09466 113.894 3.12486C114.085 3.16512 114.266 3.20538 114.437 3.27583C114.608 3.33623 114.769 3.41675 114.92 3.5174C115.071 3.61805 115.202 3.72877 115.323 3.84955L114.82 4.51385C114.648 4.30248 114.427 4.14144 114.165 4.02066C113.904 3.89987 113.622 3.83948 113.32 3.83948C113.068 3.83948 112.827 3.87974 112.595 3.97033C112.364 4.06092 112.172 4.1817 112.001 4.34274C111.83 4.50378 111.699 4.70509 111.599 4.93659C111.498 5.16808 111.448 5.43984 111.448 5.7418C111.448 6.03369 111.498 6.30545 111.589 6.54701C111.689 6.78858 111.82 6.99994 111.991 7.17105C112.162 7.34216 112.374 7.48307 112.605 7.57366C112.837 7.66424 113.098 7.71457 113.38 7.71457C113.702 7.71457 113.994 7.65418 114.256 7.5334C114.508 7.41262 114.719 7.25157 114.88 7.05027L115.413 7.58372C115.192 7.84542 114.9 8.06685 114.558 8.23796C114.206 8.40907 113.793 8.49965 113.32 8.49965C112.897 8.52985 112.515 8.45939 112.182 8.31848Z" fill="white"/>
<path d="M120.466 8.33861C120.134 8.20776 119.852 8.02659 119.611 7.79509C119.369 7.56359 119.178 7.2717 119.037 6.93955C118.896 6.6074 118.826 6.22493 118.826 5.80219C118.826 5.36939 118.896 4.97685 119.047 4.63463C119.198 4.29242 119.389 4.01059 119.641 3.77909C119.892 3.54759 120.174 3.37649 120.496 3.2557C120.818 3.13492 121.151 3.07453 121.503 3.07453C121.905 3.07453 122.268 3.14499 122.58 3.29597C122.892 3.44694 123.164 3.63818 123.375 3.88981C123.586 4.14144 123.757 4.4132 123.868 4.71515C123.979 5.01711 124.039 5.33919 124.039 5.66128V5.96323H119.399V5.24861H123.677L123.184 5.86258V5.60089C123.184 5.35932 123.143 5.12782 123.053 4.91646C122.962 4.70509 122.841 4.52391 122.68 4.36287C122.519 4.21189 122.338 4.08105 122.127 3.99046C121.916 3.89987 121.684 3.84955 121.432 3.84955C121.181 3.84955 120.959 3.89987 120.738 3.99046C120.527 4.08105 120.335 4.21189 120.184 4.383C120.033 4.55411 119.913 4.75541 119.822 4.98691C119.731 5.21841 119.691 5.49017 119.691 5.78206C119.691 6.08401 119.741 6.35577 119.832 6.59734C119.933 6.8389 120.064 7.05027 120.235 7.22138C120.406 7.39249 120.607 7.52333 120.839 7.61392C121.07 7.70451 121.322 7.75483 121.593 7.75483C121.926 7.75483 122.238 7.68438 122.529 7.55353C122.821 7.42268 123.053 7.24151 123.224 7.01001L123.788 7.52333C123.536 7.86555 123.204 8.11718 122.801 8.27822C122.399 8.43926 121.976 8.51978 121.543 8.51978C121.151 8.52985 120.798 8.46946 120.466 8.33861Z" fill="white"/>
<path d="M127.149 8.49965C127.119 8.49965 127.099 8.48959 127.089 8.47952V7.59379C127.119 7.60386 127.149 7.60386 127.17 7.60386C127.19 7.60386 127.21 7.60386 127.23 7.60386C127.341 7.60386 127.451 7.56359 127.562 7.49314C127.673 7.42268 127.763 7.2717 127.844 7.06034C127.924 6.84897 127.995 6.55708 128.045 6.1746C128.096 5.79213 128.126 5.29893 128.126 4.68496V3.18525H131.679V8.43926H130.823V3.96027H128.951V5.11776C128.951 5.78206 128.911 6.32558 128.83 6.75838C128.75 7.19118 128.629 7.5334 128.478 7.79509C128.327 8.05679 128.156 8.23796 127.955 8.34868C127.753 8.45939 127.542 8.50972 127.3 8.50972C127.22 8.50972 127.18 8.49965 127.149 8.49965Z" fill="white"/>
<path d="M137.305 8.31848C136.983 8.17757 136.691 7.98633 136.45 7.7347C136.208 7.48307 136.017 7.20125 135.886 6.85903C135.755 6.52688 135.685 6.16453 135.685 5.77199C135.685 5.38952 135.755 5.03724 135.886 4.70509C136.017 4.37294 136.208 4.09111 136.45 3.84955C136.691 3.60798 136.973 3.41675 137.305 3.2859C137.637 3.15505 137.99 3.08459 138.372 3.08459C138.755 3.08459 139.107 3.15505 139.439 3.2859C139.761 3.41675 140.043 3.60798 140.284 3.84955C140.526 4.09111 140.707 4.37294 140.848 4.70509C140.989 5.03724 141.049 5.39958 141.049 5.78206C141.049 6.1746 140.979 6.53694 140.848 6.8691C140.717 7.20125 140.526 7.49314 140.284 7.74476C140.043 7.99639 139.761 8.18763 139.439 8.32854C139.117 8.46946 138.755 8.53991 138.372 8.53991C137.979 8.52985 137.627 8.45939 137.305 8.31848ZM139.107 7.61392C139.328 7.52333 139.519 7.38242 139.681 7.21131C139.842 7.0402 139.962 6.82883 140.053 6.58727C140.143 6.34571 140.184 6.08401 140.184 5.79212C140.184 5.50023 140.143 5.2486 140.053 5.00704C139.962 4.77554 139.842 4.57424 139.681 4.40313C139.519 4.23202 139.328 4.10118 139.107 4.01059C138.885 3.92 138.634 3.86968 138.362 3.86968C138.09 3.86968 137.849 3.92 137.627 4.01059C137.406 4.10118 137.215 4.23202 137.043 4.40313C136.882 4.57424 136.752 4.77554 136.671 5.00704C136.58 5.23854 136.54 5.50023 136.54 5.79212C136.54 6.08401 136.59 6.34571 136.681 6.58727C136.772 6.82883 136.903 7.0402 137.053 7.21131C137.215 7.38242 137.406 7.52333 137.627 7.61392C137.849 7.7045 138.1 7.75483 138.362 7.75483C138.634 7.75483 138.875 7.7045 139.107 7.61392Z" fill="white"/>
<path d="M145.035 7.11066V6.92949V4.74535V4.66483V3.18525H145.891V4.66483V4.74535V8.4292H145.035V7.11066ZM145.327 5.25867H146.565V5.98336H145.327V5.25867ZM146.122 5.69147L148.236 3.18525H149.152V3.30603L147.149 5.60089L149.635 8.31848V8.43926H148.649L146.122 5.69147Z" fill="white"/>
</g>
</g>
</g>
<defs>
<clipPath id="clip0_1_107">
<rect width="150" height="46.34" fill="white" transform="translate(0.5 0.830002)"/>
</clipPath>
<clipPath id="clip1_1_107">
<rect width="150" height="46.34" fill="white" transform="translate(0.5 0.830002)"/>
</clipPath>
<clipPath id="clip2_1_107">
<rect width="149.981" height="46.34" fill="white" transform="translate(0.509521 0.830002)"/>
</clipPath>
</defs>
</svg>
