<?xml version="1.0" encoding="UTF-8"?> <!-- Generator: Adobe Illustrator 24.0.2, SVG Export Plug-In . SVG Version: 6.00 Build 0) --> <svg xmlns="http://www.w3.org/2000/svg" xmlns:xlink="http://www.w3.org/1999/xlink" id="Слой_1" x="0px" y="0px" viewBox="0 0 873 800" style="enable-background:new 0 0 873 800;" xml:space="preserve"> <style type="text/css"> .st0{fill:#013765;stroke:#FFFFFF;stroke-width:20;} .st1{stroke:#FFFFFF;stroke-width:20;} </style> <path class="st0" d="M664.5,426.2v-52.9C774.8,378.5,863,469.9,863,581.5c0,115-93.5,208.5-208.5,208.5 c-111.6,0-203-88.2-208.3-198.5h52.9c5.2,81.2,72.9,145.6,155.3,145.6c85.8,0,155.6-69.8,155.6-155.6 C810.1,499,745.7,431.3,664.5,426.2z"></path> <path class="st0" d="M555.8,367.8v-12.9l-12.5,3.2c-54.9,14.2-98.1,57.4-112.3,112.3l-3.2,12.5h12.9h105.1h10v-10V367.8z M582.4,300 H609v236H373v-26.6C373,394,466.9,300,582.4,300z"></path> <path class="st1" d="M127.2,373.7h190.3v52.8h-80.9c-35.6,0-64.5,28.9-64.5,64.5c0,35.6,28.9,64.5,64.5,64.5h80.4v52.8H127.4 c-35.6,0-64.5,28.9-64.5,64.5c0,35.6,28.9,64.5,64.5,64.5h0h299.4V790H127.4c-64.6,0-117.2-52.6-117.2-117.3 c0-63,50.2-114.3,112.7-116.8l15.3-0.6l-6.6-13.7c-7.5-15.5-12-32.6-12-50.7c0-18.1,4.5-35.1,12-50.6l6.7-13.8l-15.3-0.6 C60.2,423.6,10,372.3,10,309.2c0-63.1,50.2-114.4,112.8-116.8l15.3-0.6l-6.7-13.8c-7.5-15.6-12-32.6-12-50.7 C119.4,62.6,172.1,10,236.7,10h400C701.4,10,754,62.6,754,127.3c0,64.7-52.6,117.3-117.3,117.3H127.2c-35.6,0-64.5,28.9-64.5,64.5 C62.7,344.7,91.7,373.7,127.2,373.7z M636.7,62.7h-400c-35.6,0-64.6,29-64.6,64.6c0,35.6,28.9,64.6,64.6,64.6h400 c35.6,0,64.5-29,64.5-64.6C701.3,91.7,672.3,62.7,636.7,62.7z"></path> </svg> 