<?xml version="1.0" encoding="UTF-8"?> <!-- Generator: Adobe Illustrator 24.0.2, SVG Export Plug-In . SVG Version: 6.00 Build 0) --> <svg xmlns="http://www.w3.org/2000/svg" xmlns:xlink="http://www.w3.org/1999/xlink" id="Слой_1" x="0px" y="0px" viewBox="0 0 800 800" style="enable-background:new 0 0 800 800;" xml:space="preserve"> <style type="text/css"> .st0{clip-path:url(#SVGID_2_);} .st1{fill:#013765;} </style> <g> <defs> <rect id="SVGID_1_" y="0" width="800" height="800"></rect> </defs> <clipPath id="SVGID_2_"> <use xlink:href="#SVGID_1_" style="overflow:visible;"></use> </clipPath> <g class="st0"> <path d="M666.7,0H133.3c-14.7,0-26.7,12-26.7,26.7v746.7c0,14.7,12,26.7,26.7,26.7h533.3c14.7,0,26.7-12,26.7-26.7V26.7 C693.3,12,681.3,0,666.7,0z M666.7,773.3H133.3V26.7h533.3L666.7,773.3L666.7,773.3z"></path> <path class="st1" d="M329.3,182.7l17.3-17.3v61.3c0,8,5.3,13.3,13.3,13.3s13.3-5.3,13.3-13.3v-88L400,112l26.7,26.7v88 c0,8,5.3,13.3,13.3,13.3s13.3-5.3,13.3-13.3v-61.3l17.3,17.3c2.7,2.7,5.3,4,9.3,4s6.7-1.3,9.3-4c5.3-5.3,5.3-13.3,0-18.7 l-37.7-37.7c-1.1-1.9-2.6-3.5-4.6-4.6L409.3,84c-5.3-5.3-13.3-5.3-18.7,0l-37.7,37.7c-1.9,1.1-3.5,2.6-4.6,4.6L310.7,164 c-5.3,5.3-5.3,13.3,0,18.7C316,188,324,188,329.3,182.7z"></path> <path d="M200,346.7h53.3c8,0,13.3-5.3,13.3-13.3s-5.3-13.3-13.3-13.3H200c-8,0-13.3,5.3-13.3,13.3 C186.7,341.3,192,346.7,200,346.7z"></path> <path d="M466.7,333.3c0,8,5.3,13.3,13.3,13.3h93.3c8,0,13.3-5.3,13.3-13.3s-5.3-13.3-13.3-13.3H480 C472,320,466.7,325.3,466.7,333.3z"></path> <path d="M306.7,346.7h120c8,0,13.3-5.3,13.3-13.3s-5.3-13.3-13.3-13.3h-120c-8,0-13.3,5.3-13.3,13.3 C293.3,341.3,298.7,346.7,306.7,346.7z"></path> <path d="M200,400h106.7c8,0,13.3-5.3,13.3-13.3s-5.3-13.3-13.3-13.3H200c-8,0-13.3,5.3-13.3,13.3S192,400,200,400z"></path> <path d="M546.7,386.7c0,8,5.3,13.3,13.3,13.3h40c8,0,13.3-5.3,13.3-13.3s-5.3-13.3-13.3-13.3h-40 C552,373.3,546.7,378.7,546.7,386.7z"></path> <path d="M506.7,373.3H360c-8,0-13.3,5.3-13.3,13.3S352,400,360,400h146.7c8,0,13.3-5.3,13.3-13.3S514.7,373.3,506.7,373.3z"></path> <path d="M200,453.3h66.7c8,0,13.3-5.3,13.3-13.3s-5.3-13.3-13.3-13.3H200c-8,0-13.3,5.3-13.3,13.3S192,453.3,200,453.3z"></path> <path d="M573.3,426.7H440c-8,0-13.3,5.3-13.3,13.3s5.3,13.3,13.3,13.3h133.3c8,0,13.3-5.3,13.3-13.3S581.3,426.7,573.3,426.7z"></path> <path d="M306.7,440c0,8,5.3,13.3,13.3,13.3h66.7c8,0,13.3-5.3,13.3-13.3s-5.3-13.3-13.3-13.3H320C312,426.7,306.7,432,306.7,440z"></path> <path d="M200,506.7h26.7c8,0,13.3-5.3,13.3-13.3s-5.3-13.3-13.3-13.3H200c-8,0-13.3,5.3-13.3,13.3S192,506.7,200,506.7z"></path> <path d="M520,506.7h53.3c8,0,13.3-5.3,13.3-13.3s-5.3-13.3-13.3-13.3H520c-8,0-13.3,5.3-13.3,13.3S512,506.7,520,506.7z"></path> <path class="st1" d="M600,680H453.3c-8,0-13.3,5.3-13.3,13.3s5.3,13.3,13.3,13.3H600c8,0,13.3-5.3,13.3-13.3S608,680,600,680z"></path> <path d="M480,493.3c0-8-5.3-13.3-13.3-13.3H400c-8,0-13.3,5.3-13.3,13.3s5.3,13.3,13.3,13.3h66.7C474.7,506.7,480,501.3,480,493.3 z"></path> <path d="M346.7,480H280c-8,0-13.3,5.3-13.3,13.3s5.3,13.3,13.3,13.3h66.7c8,0,13.3-5.3,13.3-13.3S354.7,480,346.7,480z"></path> <path class="st1" d="M460,628c-6.7,4-8,12-4,18.7s12,8,18.7,4l30.7-21.3c17.3,14.7,37.3,14.7,50.7,12l21.3,21.3 c2.7,2.7,5.3,4,9.3,4s6.7-1.3,9.3-4c5.3-5.3,5.3-13.3,0-18.7l-26.7-26.7c-4-4-9.3-5.3-14.7-2.7c-1.3,1.3-20,8-37.3-10.7 c-4-5.3-12-6.7-17.3-2.7L460,628z"></path> </g> </g> </svg> 