<?xml version="1.0" encoding="UTF-8"?> <!-- Generator: Adobe Illustrator 24.0.2, SVG Export Plug-In . SVG Version: 6.00 Build 0) --> <svg xmlns="http://www.w3.org/2000/svg" xmlns:xlink="http://www.w3.org/1999/xlink" id="Слой_1" x="0px" y="0px" viewBox="0 0 800 800" style="enable-background:new 0 0 800 800;" xml:space="preserve"> <style type="text/css"> .st0{fill:#013765;} .st1{stroke:#FFFFFF;stroke-width:5;} .st2{fill:#013765;stroke:#FFFFFF;stroke-width:5;} </style> <path class="st0" d="M636.4,509.1c10,0,18.2-8.1,18.2-18.2c0-10-8.1-18.2-18.2-18.2s-18.2,8.1-18.2,18.2 C618.2,501,626.3,509.1,636.4,509.1z"></path> <path class="st1" d="M761.1,400v2.5h2.5h18.2c4.9,0,8.8,1.6,11.4,4.3s4.3,6.5,4.3,11.4v145.5c0,4.9-1.6,8.8-4.3,11.4 c-2.6,2.6-6.5,4.3-11.4,4.3H600c-29.5,0-52-22.5-52-52v-72.7c0-29.5,22.5-52,52-52h127.3h2.5V400V272.7c0-6-2-11.2-5.7-14.9 c-3.7-3.7-8.9-5.7-14.9-5.7H54.5c-6,0-11.2,2-14.9,5.7c-3.7,3.7-5.7,8.9-5.7,14.9v436.4c0,6,2,11.2,5.7,14.9 c3.7,3.7,8.9,5.7,14.9,5.7h654.5c6,0,11.2-2,14.9-5.7c3.7-3.7,5.7-8.9,5.7-14.9v-72.7c0-4.9,1.6-8.8,4.3-11.4 c2.6-2.6,6.5-4.3,11.4-4.3c4.9,0,8.8,1.6,11.4,4.3c2.7,2.6,4.3,6.5,4.3,11.4v72.7c0,29.5-22.5,52-52,52H54.5c-29.5,0-52-22.5-52-52 V272.7c0-29.5,22.5-52,52-52h54.5h2.5v-2.5V90.9c0-29.5,22.5-52,52-52h363.6c29.5,0,52,22.5,52,52v127.3v2.5h2.5h54.5h2.5v-2.5V90.9 c0-6-2-11.2-5.7-14.9c-3.7-3.7-8.9-5.7-14.9-5.7c-4.9,0-8.8-1.6-11.4-4.3c-2.6-2.6-4.3-6.5-4.3-11.4c0-4.9,1.6-8.8,4.3-11.4 c2.7-2.6,6.5-4.3,11.4-4.3c29.5,0,52,22.5,52,52v127.3v2.5h2.5h36.4c29.5,0,52,22.5,52,52V400z M472.7,220.7h2.5v-2.5v-40v-1.7 l-1.6-0.6c-13.9-5.2-26.1-17.4-31.3-31.3l-0.6-1.6H440H250.9h-1.7l-0.6,1.6c-5.2,13.9-17.4,26.1-31.3,31.3l-1.6,0.6v1.7v40v2.5h2.5 H472.7z M506.6,218.2v2.5h2.5H543h2.5h0v-2.5h2.5V90.9c0-6-2-11.2-5.7-14.9c-3.7-3.7-8.9-5.7-14.9-5.7H163.6c-6,0-11.2,2-14.9,5.7 c-3.7,3.7-5.7,8.9-5.7,14.9v127.3v2.5h2.5h36.4h2.5v-2.5v-54.5c0-4.9,1.6-8.8,4.3-11.4c2.6-2.7,6.5-4.3,11.4-4.3 c6,0,11.2-2,14.9-5.7c3.7-3.7,5.7-8.9,5.7-14.9c0-4.9,1.6-8.8,4.3-11.4c2.7-2.7,6.5-4.3,11.4-4.3h218.2c4.9,0,8.8,1.6,11.4,4.3 s4.3,6.5,4.3,11.4c0,6,2,11.2,5.7,14.9c3.7,3.7,8.9,5.7,14.9,5.7c4.9,0,8.8,1.6,11.4,4.3c2.6,2.6,4.3,6.5,4.3,11.4V218.2z M763.6,548h2.5v-2.5V436.4v-2.5h-2.5H600c-6,0-11.2,2-14.9,5.7c-3.7,3.7-5.7,8.9-5.7,14.9v72.7c0,6,2,11.2,5.7,14.9 c3.7,3.7,8.9,5.7,14.9,5.7H763.6z"></path> <path class="st2" d="M90.9,293.4h545.5c29.5,0,52,22.5,52,52c0,4.9-1.6,8.8-4.3,11.4c-2.7,2.6-6.5,4.3-11.4,4.3 c-4.9,0-8.8-1.6-11.4-4.3c-2.6-2.6-4.3-6.5-4.3-11.4c0-6-2-11.2-5.7-14.9c-3.7-3.7-8.9-5.7-14.9-5.7H90.9c-4.9,0-8.8-1.6-11.4-4.3 s-4.3-6.5-4.3-11.4c0-4.9,1.6-8.8,4.3-11.4C82.1,295,86,293.4,90.9,293.4z"></path> <path class="st2" d="M657,636.4c0-4.9,1.6-8.8,4.3-11.4c2.6-2.6,6.5-4.3,11.4-4.3c4.9,0,8.8,1.6,11.4,4.3c2.7,2.7,4.3,6.5,4.3,11.4 c0,29.5-22.5,52-52,52H90.9c-4.9,0-8.8-1.6-11.4-4.3s-4.3-6.5-4.3-11.4c0-4.9,1.6-8.8,4.3-11.4c2.6-2.7,6.5-4.3,11.4-4.3h545.5 c6,0,11.2-2,14.9-5.7C655,647.6,657,642.4,657,636.4z"></path> </svg> 